<svg width="1440" height="1354" viewBox="0 0 1440 1354" fill="none" xmlns="http://www.w3.org/2000/svg">
<mask id="mask0_9_24437" style="mask-type:alpha" maskUnits="userSpaceOnUse" x="0" y="-86" width="1440" height="1440">
<rect width="1440" height="1440" transform="translate(0 -86)" fill="url(#paint0_radial_9_24437)"/>
<rect width="1440" height="1440" transform="translate(0 -86)" fill="url(#paint1_linear_9_24437)"/>
</mask>
<g mask="url(#mask0_9_24437)">
<g clip-path="url(#clip0_9_24437)">
<g clip-path="url(#clip1_9_24437)">
<line x1="0.5" y1="-85.5" x2="0.5" y2="1353.5" stroke="#CDD5DF" stroke-linecap="round" stroke-dasharray="4 4"/>
<line x1="80.5" y1="-85.5" x2="80.5" y2="1353.5" stroke="#CDD5DF" stroke-linecap="round" stroke-dasharray="4 4"/>
<line x1="160.5" y1="-85.5" x2="160.5" y2="1353.5" stroke="#CDD5DF" stroke-linecap="round" stroke-dasharray="4 4"/>
<line x1="240.5" y1="-85.5" x2="240.5" y2="1353.5" stroke="#CDD5DF" stroke-linecap="round" stroke-dasharray="4 4"/>
<line x1="320.5" y1="-85.5" x2="320.5" y2="1353.5" stroke="#CDD5DF" stroke-linecap="round" stroke-dasharray="4 4"/>
<line x1="400.5" y1="-85.5" x2="400.5" y2="1353.5" stroke="#CDD5DF" stroke-linecap="round" stroke-dasharray="4 4"/>
<line x1="480.5" y1="-85.5" x2="480.5" y2="1353.5" stroke="#CDD5DF" stroke-linecap="round" stroke-dasharray="4 4"/>
<line x1="560.5" y1="-85.5" x2="560.5" y2="1353.5" stroke="#CDD5DF" stroke-linecap="round" stroke-dasharray="4 4"/>
<line x1="640.5" y1="-85.5" x2="640.5" y2="1353.5" stroke="#CDD5DF" stroke-linecap="round" stroke-dasharray="4 4"/>
<line x1="720.5" y1="-85.5" x2="720.5" y2="1353.5" stroke="#CDD5DF" stroke-linecap="round" stroke-dasharray="4 4"/>
<line x1="800.5" y1="-85.5" x2="800.5" y2="1353.5" stroke="#CDD5DF" stroke-linecap="round" stroke-dasharray="4 4"/>
<line x1="880.5" y1="-85.5" x2="880.5" y2="1353.5" stroke="#CDD5DF" stroke-linecap="round" stroke-dasharray="4 4"/>
<line x1="960.5" y1="-85.5" x2="960.5" y2="1353.5" stroke="#CDD5DF" stroke-linecap="round" stroke-dasharray="4 4"/>
<line x1="1040.5" y1="-85.5" x2="1040.5" y2="1353.5" stroke="#CDD5DF" stroke-linecap="round" stroke-dasharray="4 4"/>
<line x1="1120.5" y1="-85.5" x2="1120.5" y2="1353.5" stroke="#CDD5DF" stroke-linecap="round" stroke-dasharray="4 4"/>
<line x1="1200.5" y1="-85.5" x2="1200.5" y2="1353.5" stroke="#CDD5DF" stroke-linecap="round" stroke-dasharray="4 4"/>
<line x1="1280.5" y1="-85.5" x2="1280.5" y2="1353.5" stroke="#CDD5DF" stroke-linecap="round" stroke-dasharray="4 4"/>
<line x1="1360.5" y1="-85.5" x2="1360.5" y2="1353.5" stroke="#CDD5DF" stroke-linecap="round" stroke-dasharray="4 4"/>
</g>
<g clip-path="url(#clip2_9_24437)">
<line x1="-239.5" y1="73.5" x2="1679.5" y2="73.5" stroke="#CDD5DF" stroke-linecap="round" stroke-dasharray="4 4"/>
<line x1="-239.5" y1="153.5" x2="1679.5" y2="153.5" stroke="#CDD5DF" stroke-linecap="round" stroke-dasharray="4 4"/>
<line x1="-239.5" y1="233.5" x2="1679.5" y2="233.5" stroke="#CDD5DF" stroke-linecap="round" stroke-dasharray="4 4"/>
<line x1="-239.5" y1="313.5" x2="1679.5" y2="313.5" stroke="#CDD5DF" stroke-linecap="round" stroke-dasharray="4 4"/>
<line x1="-239.5" y1="393.5" x2="1679.5" y2="393.5" stroke="#CDD5DF" stroke-linecap="round" stroke-dasharray="4 4"/>
<line x1="-239.5" y1="473.5" x2="1679.5" y2="473.5" stroke="#CDD5DF" stroke-linecap="round" stroke-dasharray="4 4"/>
<line x1="-239.5" y1="553.5" x2="1679.5" y2="553.5" stroke="#CDD5DF" stroke-linecap="round" stroke-dasharray="4 4"/>
<line x1="-239.5" y1="633.5" x2="1679.5" y2="633.5" stroke="#CDD5DF" stroke-linecap="round" stroke-dasharray="4 4"/>
<line x1="-239.5" y1="713.5" x2="1679.5" y2="713.5" stroke="#CDD5DF" stroke-linecap="round" stroke-dasharray="4 4"/>
<line x1="-239.5" y1="793.5" x2="1679.5" y2="793.5" stroke="#CDD5DF" stroke-linecap="round" stroke-dasharray="4 4"/>
<line x1="-239.5" y1="873.5" x2="1679.5" y2="873.5" stroke="#CDD5DF" stroke-linecap="round" stroke-dasharray="4 4"/>
<line x1="-239.5" y1="953.5" x2="1679.5" y2="953.5" stroke="#CDD5DF" stroke-linecap="round" stroke-dasharray="4 4"/>
<line x1="-239.5" y1="1033.5" x2="1679.5" y2="1033.5" stroke="#CDD5DF" stroke-linecap="round" stroke-dasharray="4 4"/>
<line x1="-239.5" y1="1113.5" x2="1679.5" y2="1113.5" stroke="#CDD5DF" stroke-linecap="round" stroke-dasharray="4 4"/>
<line x1="-240" y1="1193.5" x2="1680" y2="1193.5" stroke="#E3E8EF"/>
<line x1="-240" y1="1273.5" x2="1680" y2="1273.5" stroke="#E3E8EF"/>
</g>
</g>
</g>
<defs>
<radialGradient id="paint0_radial_9_24437" cx="0" cy="0" r="1" gradientUnits="userSpaceOnUse" gradientTransform="translate(720 720) rotate(90) scale(720 720)">
<stop/>
<stop offset="1" stop-opacity="0"/>
</radialGradient>
<linearGradient id="paint1_linear_9_24437" x1="720" y1="941" x2="720" y2="1505.5" gradientUnits="userSpaceOnUse">
<stop stop-opacity="0"/>
<stop offset="0.775" stop-opacity="0.5"/>
<stop offset="1" stop-opacity="0"/>
</linearGradient>
<clipPath id="clip0_9_24437">
<rect width="1920" height="1440" fill="white" transform="translate(-240 -86)"/>
</clipPath>
<clipPath id="clip1_9_24437">
<rect width="1920" height="1440" fill="white" transform="translate(-240 -86)"/>
</clipPath>
<clipPath id="clip2_9_24437">
<rect width="1920" height="1440" fill="white" transform="translate(-240 -86)"/>
</clipPath>
</defs>
</svg>
